<svg version="1.1" id="Layer_1" xmlns="http://www.w3.org/2000/svg" xmlns:xlink="http://www.w3.org/1999/xlink" x="0px" y="0px"
	 width="100%" viewBox="0 0 1024 1024" enable-background="new 0 0 1024 1024" xml:space="preserve">
<path fill="#000000" opacity="1.000000" stroke="none" 
	d="
M485.998962,463.086548 
	C457.849426,451.880768 438.395996,432.611664 427.428528,404.623291 
	C419.889893,385.385162 411.452332,366.532379 400.056793,349.167633 
	C399.531403,348.367096 399.240540,347.412689 398.404266,345.567627 
	C430.519592,345.395752 457.768768,355.601685 480.479279,377.151642 
	C503.721069,399.205688 508.587250,428.618958 511.312378,459.728149 
	C514.780396,456.859497 515.506714,453.786865 516.623840,451.023651 
	C525.619202,428.772949 535.002991,406.740234 547.774353,386.277649 
	C572.921265,345.986450 604.584778,311.647736 641.773499,282.268707 
	C643.200317,281.141510 644.508789,279.864563 646.056458,278.494507 
	C637.933533,280.051300 611.380615,298.873505 592.286499,316.396393 
	C575.731812,331.588745 561.694458,348.848419 549.564026,367.733887 
	C537.629333,386.314606 527.309753,405.764282 518.491455,425.883850 
	C516.351746,425.289673 516.210754,424.040985 516.189697,422.924500 
	C515.794006,401.993073 513.131653,381.057922 514.807373,360.148163 
	C517.596252,325.348938 529.757507,294.656952 555.889160,270.274841 
	C577.053345,250.527634 602.615051,240.237839 630.210754,233.662476 
	C651.040222,228.699326 672.313599,226.195847 693.215942,221.699905 
	C700.641479,220.102737 708.000854,218.197998 715.645325,216.372803 
	C717.010803,220.828552 716.511597,225.178680 716.257568,229.380219 
	C713.402161,276.602142 701.632751,320.501678 669.300476,356.986053 
	C647.713440,381.345215 621.624084,398.743317 591.318542,410.286652 
	C577.315430,415.620422 563.625488,421.751862 551.282104,430.492279 
	C547.432800,433.217987 544.057190,436.303619 541.264832,440.134308 
	C531.728821,453.216583 525.073120,467.744080 520.542786,483.144745 
	C515.803528,499.255524 516.708801,515.678223 519.795776,532.026489 
	C519.948853,532.837463 520.066711,533.658997 520.129944,534.481140 
	C520.153687,534.789185 519.974365,535.112915 519.727661,536.013672 
	C514.890625,536.839417 509.793335,536.347900 504.731140,536.197998 
	C502.680298,536.137268 502.883301,534.268738 502.563599,532.830994 
	C500.986725,525.739014 501.806244,518.550598 501.671143,511.406097 
	C501.424683,498.374939 499.821259,485.598724 495.719543,473.150543 
	C494.094269,468.218170 491.652496,464.482269 485.998962,463.086548 
M472.179626,401.329559 
	C469.945160,399.324982 468.084137,396.797882 464.693420,396.149506 
	C474.475769,409.158203 481.847015,423.556854 490.315002,437.319550 
	C488.866486,423.245819 482.285248,411.784943 472.179626,401.329559 
z"/>
<path fill="#000000" opacity="1.000000" stroke="none" 
	d="
M486.879395,174.927032 
	C490.355682,165.871078 493.601624,157.141068 497.028473,148.482635 
	C501.078033,138.250870 508.781586,133.966080 517.635010,136.891129 
	C522.223083,138.406967 525.142761,141.676804 526.855957,146.095474 
	C534.681152,166.277954 542.559143,186.440338 550.286072,206.660416 
	C554.446411,217.547241 558.253784,228.568832 562.403442,239.459885 
	C563.800781,243.127014 563.323364,245.692413 559.959473,248.021988 
	C553.094360,252.776184 546.920410,258.370209 541.223816,264.486786 
	C540.345947,265.429321 539.582825,266.626587 537.367676,266.782928 
	C530.188538,247.672241 523.255493,228.217163 514.063477,209.633484 
	C510.841125,211.028488 510.396210,213.733749 509.382111,215.877106 
	C496.192505,243.753510 485.294006,272.550446 475.119354,301.634949 
	C473.799805,305.406982 472.438568,309.165070 471.046509,312.911011 
	C468.407196,320.013031 463.133728,323.220367 455.698242,323.426544 
	C423.396729,324.322174 391.096985,323.010712 358.796265,323.395081 
	C352.977814,323.464325 347.157990,323.408447 341.339050,323.446747 
	C339.521118,323.458710 337.632416,323.411255 336.516968,325.315643 
	C336.624084,327.358887 338.325897,327.994263 339.625458,328.934296 
	C361.097473,344.466339 381.090820,361.818726 401.276672,378.936157 
	C402.900055,380.312805 403.691010,382.071075 404.378937,383.954102 
	C409.585388,398.205719 414.601776,412.726654 423.432190,425.081360 
	C429.473297,433.533569 428.505920,441.005371 425.558777,449.741364 
	C417.585999,473.374268 410.421173,497.267853 403.610809,521.263977 
	C403.384186,522.062500 403.270416,522.907288 404.049103,523.767334 
	C406.029175,524.747070 407.279419,523.057861 408.707947,522.089966 
	C430.614044,507.247650 452.506927,492.385803 474.406128,477.533295 
	C475.784546,476.598419 477.190613,475.704376 478.582123,474.788727 
	C480.886566,473.272308 482.869171,473.575592 483.700958,476.295837 
	C486.628113,485.868652 488.474487,495.640503 488.363953,505.701660 
	C488.340973,507.794708 486.745178,508.869385 485.223755,509.930023 
	C451.197449,533.651123 416.848022,556.890320 381.864227,579.181641 
	C379.624664,580.608704 377.305817,581.909546 374.580994,582.316833 
	C361.108856,584.330444 353.472351,575.157898 357.552124,561.582153 
	C363.723236,541.047485 370.348633,520.645386 376.253784,500.035889 
	C383.669586,474.153961 392.081329,448.562866 398.819946,422.480804 
	C399.648315,419.274475 398.774414,417.645935 396.437286,415.805542 
	C377.732483,401.076416 359.171509,386.164032 340.422150,371.492218 
	C318.129181,354.047455 295.675751,336.807953 273.330872,319.429260 
	C267.971649,315.261108 266.063385,308.415985 268.175049,301.894257 
	C270.214539,295.595612 274.790863,291.954315 281.977478,291.639496 
	C308.114594,290.494507 334.274200,291.020935 360.423950,290.851379 
	C385.582397,290.688202 410.742981,290.713898 435.901703,290.839294 
	C440.854218,290.863983 443.634277,289.430450 445.503967,284.359711 
	C458.606415,248.824966 472.067444,213.422440 485.428070,177.983002 
	C485.778931,177.052322 486.291779,176.182724 486.879395,174.927032 
z"/>
<path fill="#000000" opacity="1.000000" stroke="none" 
	d="
M632.493896,404.389465 
	C647.227783,396.482727 658.972168,385.446045 670.527344,374.107422 
	C692.971313,352.084167 708.208435,325.646729 718.520447,296.208862 
	C719.848633,292.417206 721.579834,290.761841 725.594971,290.970734 
	C732.241333,291.316589 738.936707,290.975098 745.553040,291.571533 
	C752.099915,292.161713 755.962402,296.631439 757.697998,302.630219 
	C759.499695,308.857361 758.250305,314.715149 753.006042,318.876312 
	C741.660950,327.878326 730.049744,336.544037 718.653442,345.482513 
	C689.313477,368.494812 659.553406,390.971588 630.687439,414.591217 
	C627.298889,417.363892 626.401550,420.189972 627.554443,424.134399 
	C635.906555,452.708282 643.928894,481.378754 652.967407,509.750275 
	C658.570679,527.338806 664.049500,544.967957 669.449280,562.620117 
	C671.477844,569.251587 670.039246,575.258118 664.570068,579.708374 
	C658.979248,584.257629 652.651978,584.731506 646.371887,581.226562 
	C642.020386,578.797913 637.938171,575.876038 633.795715,573.085266 
	C602.032043,551.686646 570.264648,530.293518 538.541077,508.835571 
	C529.132019,502.471222 528.823608,501.462891 531.820435,488.808411 
	C532.929199,484.126526 534.385376,479.531586 536.347534,475.101013 
	C538.490540,470.262146 539.642639,469.718567 544.080811,472.645966 
	C555.327698,480.064209 566.507935,487.584137 577.678223,495.117676 
	C591.059937,504.142578 604.400330,513.228577 617.768982,522.272766 
	C618.986694,523.096558 620.185608,524.165649 622.123352,523.248718 
	C623.046143,520.668335 621.726624,518.224243 620.943909,515.802795 
	C612.913269,490.960999 605.143555,466.041962 598.507629,440.784454 
	C597.495239,436.931061 596.705444,433.018738 595.834900,429.128662 
	C594.815735,424.574768 596.265076,421.828094 600.899536,419.914215 
	C611.635437,415.480499 622.487854,411.181854 632.493896,404.389465 
z"/>
<path fill="#000000" opacity="1.000000" stroke="none" 
	d="
M610.663330,635.999878 
	C610.667542,627.166870 610.809998,618.830566 610.614136,610.502258 
	C610.526184,606.761475 611.943665,605.604675 615.574524,605.639832 
	C630.572632,605.785400 645.577209,605.479919 660.571167,605.768982 
	C679.389648,606.131836 691.503418,615.307556 694.716919,632.481567 
	C697.528687,647.508789 694.207642,664.647949 677.860840,671.239929 
	C674.527466,672.584045 675.458252,674.482666 676.870728,676.724548 
	C683.619141,687.435730 690.316345,698.179382 696.979858,708.943665 
	C697.829285,710.315918 699.190674,711.478516 699.169373,713.871460 
	C694.049316,714.972961 688.699402,713.674011 683.611267,714.534119 
	C674.591553,716.058655 669.623840,712.175964 665.819275,704.289429 
	C661.707825,695.766663 656.369751,687.835327 651.559998,679.649963 
	C649.384277,675.947327 639.161255,673.536133 635.598145,675.891846 
	C633.862061,677.039612 634.389526,678.876587 634.382935,680.466553 
	C634.337524,691.450439 634.359070,702.434631 634.359070,714.321533 
	C626.997253,714.321533 619.918762,714.492065 612.855286,714.240784 
	C609.870667,714.134583 610.703857,711.302795 610.696167,709.497192 
	C610.630127,693.998047 610.663696,678.498535 610.665649,662.999084 
	C610.666748,654.166016 610.664429,645.333008 610.663330,635.999878 
M634.355896,646.400024 
	C634.363037,648.232239 634.414185,650.065674 634.366516,651.896423 
	C634.302429,654.354187 635.370728,655.648254 637.903992,655.632751 
	C644.565857,655.591858 651.267151,656.013367 657.879944,655.428406 
	C666.315125,654.682373 670.056702,649.192505 669.670715,639.482361 
	C669.377686,632.110718 664.646606,627.576416 656.681458,627.300476 
	C651.024048,627.104370 645.355957,627.234497 639.695435,627.101562 
	C635.950073,627.013672 634.165710,628.525574 634.322449,632.435913 
	C634.495728,636.759766 634.358337,641.096008 634.355896,646.400024 
z"/>
<path fill="#000000" opacity="1.000000" stroke="none" 
	d="
M662.917236,815.069458 
	C652.681763,801.544067 642.674561,788.290771 632.426575,774.718567 
	C630.909851,776.659485 631.385254,778.508606 631.380249,780.176086 
	C631.331177,796.497864 631.186829,812.822388 631.447021,829.140076 
	C631.521851,833.829163 629.917358,835.368530 625.441406,835.028931 
	C621.798523,834.752563 618.100098,834.753296 614.457947,835.037109 
	C609.771606,835.402283 608.547852,833.391785 608.580994,828.920410 
	C608.761292,804.605408 608.665161,780.288452 608.667664,755.972168 
	C608.668274,749.976379 608.791687,743.977966 608.646301,737.985901 
	C608.567261,734.728699 609.907776,733.745422 613.068542,733.619690 
	C629.472534,732.967041 629.445007,732.912781 639.220032,745.924988 
	C650.617371,761.096924 662.060303,776.234680 673.494446,791.378906 
	C674.457336,792.654175 675.153809,794.230408 676.938293,794.868958 
	C678.118408,792.886047 677.616760,790.853760 677.622375,788.933594 
	C677.670898,772.278748 677.765442,755.622314 677.569702,738.969666 
	C677.520386,734.780151 678.944458,733.334473 683.033020,733.615112 
	C687.011414,733.888306 691.039612,733.897644 695.016052,733.609802 
	C699.185669,733.307922 700.427612,734.915222 700.402527,739.021545 
	C700.249756,764.003052 700.328369,788.986023 700.328674,813.968506 
	C700.328735,819.464661 700.190063,824.965210 700.372620,830.455200 
	C700.481445,833.726746 699.120605,834.937988 695.992798,834.921997 
	C690.832214,834.895752 685.669739,835.000183 680.510315,835.136780 
	C678.405457,835.192505 677.128662,834.075989 675.985413,832.536926 
	C671.719727,826.794617 667.427734,821.071716 662.917236,815.069458 
z"/>
<path fill="#000000" opacity="1.000000" stroke="none" 
	d="
M177.652679,787.854858 
	C176.704361,772.573853 180.512848,759.136108 190.669159,748.251343 
	C203.112976,734.914978 218.909256,730.345947 236.898987,732.450012 
	C254.600662,734.520386 268.929901,742.413269 277.154633,758.315063 
	C287.221008,777.777649 286.723755,797.820618 274.031281,815.984253 
	C261.866669,833.392395 243.779190,839.668152 223.192291,836.802307 
	C200.684540,833.668945 185.751068,820.701233 179.283447,798.628174 
	C178.309860,795.305420 177.532898,791.869019 177.652679,787.854858 
M218.960693,814.630920 
	C232.417206,819.918213 245.825500,816.260315 253.568985,805.189514 
	C261.619202,793.680298 261.705505,776.281677 253.769730,764.698669 
	C241.442917,746.706482 215.101959,748.416260 205.180878,767.852600 
	C196.521149,784.817749 202.035263,804.359863 218.960693,814.630920 
z"/>
<path fill="#000000" opacity="1.000000" stroke="none" 
	d="
M380.925537,830.194641 
	C381.639801,831.363159 382.186737,832.201538 382.641846,833.087219 
	C382.767212,833.331238 382.618713,833.716003 382.539368,834.828796 
	C374.552856,834.828796 366.491028,834.910522 358.432709,834.777405 
	C356.109253,834.739014 355.339783,832.497375 354.326080,830.802429 
	C348.603821,821.234375 342.928345,811.638123 337.156799,802.099976 
	C335.176392,798.827087 327.093445,796.958008 323.881409,798.843445 
	C322.069458,799.906921 322.406860,801.684326 322.400848,803.297852 
	C322.367310,812.292542 322.228943,821.291260 322.457275,830.280212 
	C322.546387,833.787659 321.383667,835.102234 317.940033,834.973450 
	C313.448425,834.805420 308.944275,834.802612 304.450439,834.918640 
	C300.771820,835.013672 299.625885,833.394531 299.638794,829.789795 
	C299.747894,799.307800 299.709991,768.825256 299.698151,738.342834 
	C299.697174,735.845642 299.766876,733.585815 303.237244,733.684875 
	C319.858887,734.159241 336.558197,732.296265 353.099152,734.740723 
	C365.054504,736.507507 373.718384,742.941650 377.347870,754.926208 
	C381.106537,767.337463 379.777924,778.935913 371.006531,789.027771 
	C368.108215,792.362366 364.031982,794.042969 359.376343,796.099060 
	C366.578857,807.497498 373.651215,818.689941 380.925537,830.194641 
M346.126526,754.177429 
	C339.234253,752.545410 332.249146,753.635193 325.307098,753.487610 
	C322.865051,753.435608 322.340302,755.047668 322.355011,757.148254 
	C322.400360,763.624817 322.491425,770.104797 322.328522,776.577515 
	C322.243988,779.937500 323.751740,780.924438 326.834808,780.836731 
	C331.812347,780.695190 336.800537,780.901184 341.776367,780.730652 
	C349.917786,780.451538 353.735535,777.056396 355.329041,768.992249 
	C356.536652,762.880981 353.356018,757.357300 346.126526,754.177429 
z"/>
<path fill="#000000" opacity="1.000000" stroke="none" 
	d="
M476.778351,824.783447 
	C460.607056,838.809326 442.366608,839.735657 423.552643,833.401611 
	C405.136200,827.201355 394.027008,813.646790 390.801514,794.569336 
	C385.695221,764.367432 402.239594,739.364380 431.235107,733.204163 
	C451.110260,728.981628 468.910767,733.140137 483.146667,748.581543 
	C484.359680,749.897217 485.810516,751.134216 486.127930,753.683105 
	C481.348846,757.123596 476.010132,760.070862 470.613953,762.922058 
	C468.174713,764.210876 467.022369,762.226135 465.587891,760.894348 
	C454.146729,750.272034 437.959839,749.352783 425.829987,758.616394 
	C414.507812,767.263184 410.962006,785.389221 417.927673,799.012512 
	C425.089935,813.020325 438.862457,819.645325 452.666321,815.521423 
	C461.021179,813.025391 466.631378,807.697388 469.147369,798.355103 
	C461.933807,798.355103 455.310760,798.162842 448.705994,798.426819 
	C444.708099,798.586609 443.596680,797.067139 443.576355,793.220886 
	C443.509918,780.653320 443.377472,780.653809 455.770721,780.654846 
	C465.601654,780.655640 475.434784,780.775757 485.262421,780.596252 
	C488.885651,780.530090 490.371613,781.657471 490.253174,785.429565 
	C489.801056,799.829529 487.976044,813.706787 476.778351,824.783447 
z"/>
<path fill="#000000" opacity="1.000000" stroke="none" 
	d="
M528.475891,613.519653 
	C529.609680,607.200256 532.907471,604.830872 539.058289,605.588440 
	C543.487000,606.133972 548.044434,605.847595 552.530823,605.639160 
	C555.699280,605.491943 557.290771,606.740784 558.408020,609.692810 
	C568.648926,636.752441 579.024048,663.761414 589.343018,690.791565 
	C592.230164,698.354309 595.061035,705.938538 598.222717,714.321594 
	C589.901184,714.321594 582.448730,714.349609 574.996704,714.304871 
	C572.704651,714.291138 572.038879,712.401001 571.384705,710.696838 
	C569.656738,706.195618 567.945496,701.686218 566.343079,697.139343 
	C565.382202,694.412781 563.709900,693.298340 560.735596,693.335876 
	C549.747009,693.474487 538.755005,693.461487 527.765808,693.353210 
	C524.791809,693.323914 523.163513,694.459839 522.287415,697.279419 
	C520.906433,701.723450 519.138672,706.049744 517.825745,710.511536 
	C516.995361,713.333496 515.654846,714.668701 512.545959,714.466797 
	C505.155457,713.986938 497.697754,715.080566 489.707855,713.951172 
	C502.728821,680.230774 515.537842,647.059265 528.475891,613.519653 
M536.097351,654.408142 
	C533.857971,660.896423 531.618652,667.384705 529.275269,674.174622 
	C539.190918,674.174622 548.201599,674.174622 558.221191,674.174622 
	C553.330872,660.690063 548.721924,647.981262 544.112915,635.272400 
	C543.676270,635.334412 543.239685,635.396484 542.803101,635.458557 
	C540.636475,641.522827 538.469910,647.587158 536.097351,654.408142 
z"/>
<path fill="#000000" opacity="1.000000" stroke="none" 
	d="
M395.300934,665.859131 
	C405.488739,681.806641 401.759155,708.534973 376.997070,714.802002 
	C356.179199,720.070740 337.432068,716.277649 321.310577,701.656616 
	C316.553986,697.342651 316.659180,696.651489 321.686066,692.508423 
	C324.256958,690.389587 326.986420,688.447144 329.426544,686.189697 
	C332.442688,683.399292 334.764008,683.353271 337.818634,686.492554 
	C345.532562,694.420410 355.076263,697.360596 366.060730,695.723755 
	C370.785095,695.019714 374.294708,692.791260 375.515961,688.094238 
	C376.731689,683.418396 375.749481,679.217590 371.662537,676.033447 
	C367.203613,672.559509 361.862610,671.175171 356.681824,669.398193 
	C350.390411,667.240173 343.983429,665.409058 338.040924,662.316650 
	C326.588776,656.357361 321.511322,646.507446 321.916046,634.079102 
	C322.342773,620.975403 329.070526,611.874390 341.599304,607.394165 
	C360.468750,600.646545 377.909424,603.556641 393.942810,615.348572 
	C398.435242,618.652588 398.375122,619.457336 394.361877,623.383057 
	C394.123627,623.616089 393.878174,623.841614 393.636230,624.070923 
	C390.496735,627.046692 387.826324,631.091125 384.098785,632.727539 
	C379.455231,634.766052 377.179962,628.710754 373.252167,627.150391 
	C367.360260,624.809814 361.524475,623.397034 355.294708,625.019897 
	C350.726074,626.209961 346.898407,628.316589 346.250305,633.724976 
	C345.575317,639.357971 348.762909,642.621338 353.350098,644.499268 
	C359.806763,647.142639 366.483887,649.245056 373.051849,651.619873 
	C381.417480,654.644653 389.510742,658.117493 395.300934,665.859131 
z"/>
<path fill="#000000" opacity="1.000000" stroke="none" 
	d="
M582.196777,794.004639 
	C587.314026,807.406799 592.307861,820.443359 597.601074,834.261292 
	C589.652405,835.412415 582.296570,835.302063 574.945251,834.466003 
	C573.313049,834.280334 572.833557,832.462219 572.292297,831.080200 
	C570.653931,826.895935 568.948425,822.731018 567.517212,818.475159 
	C566.510071,815.480164 564.696594,814.328857 561.574707,814.364014 
	C551.577393,814.476562 541.577576,814.459106 531.579773,814.368774 
	C529.029297,814.345703 527.526306,815.313599 526.720764,817.702209 
	C525.231567,822.117859 523.662231,826.506836 522.092468,830.894775 
	C521.477966,832.612488 520.975342,834.674561 518.692261,834.705933 
	C511.444305,834.805664 504.194153,834.742798 497.230133,834.742798 
	C496.178253,832.558228 497.174469,831.228882 497.691498,829.888672 
	C509.313721,799.760742 521.058350,769.679565 532.522827,739.491943 
	C534.211670,735.045044 536.426880,733.106262 541.236328,733.585938 
	C545.361328,733.997314 549.588135,733.970886 553.718262,733.585327 
	C557.840454,733.200500 559.607056,735.059326 560.958923,738.641602 
	C567.891968,757.013733 575.016052,775.313782 582.196777,794.004639 
M547.761719,763.290100 
	C547.432556,762.571411 547.278564,761.702087 545.721008,761.463440 
	C541.281006,773.038147 537.109802,784.795288 533.347168,797.219788 
	C542.360535,797.219788 550.538940,797.219788 559.853149,797.219788 
	C555.737366,785.636108 551.874390,774.764038 547.761719,763.290100 
z"/>
<path fill="#000000" opacity="1.000000" stroke="none" 
	d="
M767.300598,754.416321 
	C785.987976,727.103394 827.694702,723.706970 850.090515,747.389832 
	C854.476196,752.027527 854.444580,752.421753 849.404236,755.942322 
	C849.131042,756.133118 848.832947,756.296326 848.587952,756.518250 
	C841.848206,762.621826 836.217407,765.054321 827.286499,757.841919 
	C817.244324,749.732178 804.817383,751.110229 794.402771,759.159607 
	C784.487610,766.822815 781.141357,777.510864 782.943176,789.812744 
	C784.264404,798.833496 788.489807,806.176514 796.171021,811.223694 
	C807.294006,818.532471 821.849243,817.379578 831.615112,808.028259 
	C835.098145,804.692993 837.788208,804.321899 841.462952,807.191956 
	C844.607483,809.647766 847.956909,811.854797 851.311584,814.023560 
	C853.790527,815.626221 853.638367,817.026062 851.848206,819.211060 
	C840.926392,832.542480 826.325989,837.768616 809.787354,837.076233 
	C792.426941,836.349487 777.598206,829.270203 768.086670,814.242004 
	C755.809204,794.843506 755.930420,774.752197 767.300598,754.416321 
z"/>
<path fill="#000000" opacity="1.000000" stroke="none" 
	d="
M440.991455,684.000000 
	C441.014191,666.853088 440.922913,650.204773 441.131104,633.560181 
	C441.189178,628.919373 439.842651,626.900085 434.890839,627.174011 
	C428.418152,627.532043 421.895477,626.992554 415.423676,627.358398 
	C410.664825,627.627441 409.235962,625.735962 409.593445,621.300537 
	C409.873383,617.827087 409.851654,614.298889 409.600800,610.821228 
	C409.319885,606.926575 410.769257,605.587646 414.711609,605.634216 
	C429.525391,605.809143 444.342560,605.696045 459.158478,605.692017 
	C469.146759,605.689270 479.142670,605.919189 489.120056,605.588623 
	C494.068695,605.424683 495.638855,607.223267 495.190826,611.945740 
	C494.846375,615.576172 495.018372,619.266541 495.125458,622.925476 
	C495.218323,626.099915 493.914551,627.408203 490.679291,627.328186 
	C484.190613,627.167725 477.683838,627.489441 471.207581,627.159607 
	C466.516785,626.920776 465.234375,628.752441 465.266632,633.252136 
	C465.439606,657.389160 465.358673,681.528198 465.339874,705.666504 
	C465.332214,715.522156 465.962097,714.311279 456.893799,714.390259 
	C453.231689,714.422180 449.559479,714.239441 445.909485,714.454224 
	C442.177673,714.673828 440.890381,713.053650 440.946411,709.470032 
	C441.076508,701.148560 440.989563,692.823547 440.991455,684.000000 
z"/>
<path fill="#000000" opacity="1.000000" stroke="none" 
	d="
M721.591797,741.064575 
	C721.688354,733.696106 721.688354,733.688599 728.399902,733.672485 
	C733.516479,733.660156 738.633118,733.669983 743.297791,733.669983 
	C744.663452,735.446167 744.329529,736.827148 744.330322,738.119812 
	C744.349243,768.421936 744.253601,798.724548 744.440369,829.025513 
	C744.468689,833.626587 743.061401,835.364624 738.509521,835.010132 
	C735.033997,834.739624 731.505188,834.736633 728.028564,834.996399 
	C723.120422,835.363159 721.453613,833.594055 721.494751,828.466431 
	C721.727295,799.498230 721.598145,770.527161 721.591797,741.064575 
z"/>
<path fill="#000000" opacity="1.000000" stroke="none" 
	d="
M588.007446,860.368164 
	C592.509827,865.393616 595.039429,871.265076 598.567932,876.498901 
	C601.466980,880.798950 602.956665,880.896118 605.767212,876.579346 
	C608.582031,872.255981 611.132507,867.761475 613.880981,863.393677 
	C615.845154,860.272156 622.690002,858.606628 625.884033,860.296082 
	C627.377319,861.085938 627.299988,862.445496 627.302307,863.738953 
	C627.325195,876.395752 627.252991,889.052979 627.341248,901.709106 
	C627.368408,905.602905 624.812744,905.387207 622.270325,905.304993 
	C619.740173,905.223083 616.609009,906.067810 616.670776,901.727051 
	C616.746704,896.399231 616.702698,891.068665 616.633728,885.740295 
	C616.613525,884.176453 617.097534,882.428650 615.335510,880.768066 
	C609.873596,886.279541 607.440308,893.837952 601.512756,899.854065 
	C597.271912,893.302917 593.288879,887.150146 589.261230,880.928406 
	C586.951660,882.576965 587.409119,884.529846 587.378540,886.261841 
	C587.302185,890.590576 587.365051,894.921570 587.343811,899.251526 
	C587.315491,905.033020 584.905640,906.734619 579.261475,905.227600 
	C577.083313,904.645996 576.912109,903.112244 576.908752,901.417114 
	C576.883789,888.926758 576.929199,876.436279 576.867432,863.946228 
	C576.852356,860.896118 578.297546,859.743713 581.165894,859.902710 
	C583.323364,860.022400 585.483643,860.093384 588.007446,860.368164 
z"/>
<path fill="#000000" opacity="1.000000" stroke="none" 
	d="
M551.275757,903.671875 
	C545.671326,906.968079 540.509521,905.830627 537.471252,900.955933 
	C535.445435,897.705566 533.453308,894.434082 531.456726,891.165649 
	C530.478210,889.563904 529.100647,888.824646 527.243347,889.290039 
	C525.304199,889.776001 525.400024,891.418335 525.371826,892.911255 
	C525.327698,895.243225 525.166138,897.594055 525.386658,899.905212 
	C525.770935,903.933472 524.355347,905.505432 520.097412,905.452087 
	C516.075378,905.401733 514.497131,904.304199 514.581055,900.066162 
	C514.811890,888.407227 514.769714,876.739075 514.596375,865.078125 
	C514.539185,861.228027 515.792969,859.555481 519.760315,859.836914 
	C525.564758,860.248596 531.383423,859.750610 537.218994,860.443420 
	C542.885559,861.116028 547.364197,863.133301 548.958313,868.816345 
	C550.747253,875.194031 550.474670,881.385498 544.750122,886.079956 
	C544.112854,886.602600 543.448181,887.091919 542.478882,887.842407 
	C544.450867,893.552856 548.628052,898.004944 551.275757,903.671875 
M537.971375,876.609619 
	C539.295898,873.871155 538.399780,871.466797 536.012329,870.222351 
	C533.010132,868.657532 529.494873,868.687256 526.473755,870.193115 
	C524.343018,871.255066 524.936951,879.118652 527.050293,879.366272 
	C530.674805,879.791016 534.714111,881.015076 537.971375,876.609619 
z"/>
<path fill="#000000" opacity="1.000000" stroke="none" 
	d="
M465.395325,896.388367 
	C462.084808,896.511353 459.431061,896.768066 457.805298,899.836792 
	C454.582855,905.919434 452.618225,906.548828 445.162659,904.459961 
	C444.887146,901.664673 446.626434,899.460449 447.549774,897.045410 
	C451.699341,886.192139 456.060028,875.418823 460.136993,864.538879 
	C461.448486,861.039124 463.508179,859.739746 467.222137,859.789612 
	C470.924988,859.839294 473.330597,860.590759 474.805634,864.508057 
	C479.425293,876.776489 484.456482,888.889832 489.307343,901.071594 
	C489.724854,902.120117 490.419708,903.168457 489.795532,904.386963 
	C482.457336,906.731140 479.890106,906.001038 476.795258,899.729370 
	C474.184875,894.439514 469.604065,897.053894 465.395325,896.388367 
M468.168365,887.656921 
	C470.491516,887.231628 471.133057,885.657776 470.545502,883.652771 
	C469.918518,881.513245 469.946686,878.997253 467.761078,877.585510 
	C467.420898,877.365784 466.666901,877.322083 466.386169,877.547729 
	C463.904327,879.541870 463.124786,882.589905 462.906494,885.379639 
	C462.688202,888.169373 465.572784,887.501648 468.168365,887.656921 
z"/>
<path fill="#000000" opacity="1.000000" stroke="none" 
	d="
M406.362793,874.945312 
	C406.357758,878.492615 408.572662,878.608887 410.853790,878.612366 
	C415.491028,878.619507 420.128296,878.614563 424.637054,878.614563 
	C425.042114,879.523254 425.391754,879.955627 425.410370,880.401794 
	C425.739594,888.284485 425.730927,888.284851 417.800842,888.251465 
	C417.634186,888.250793 417.467529,888.250244 417.300873,888.249512 
	C406.412567,888.202454 406.372742,888.202515 406.372070,899.035767 
	C406.371826,902.520325 406.702362,905.680420 401.438171,905.433716 
	C397.722198,905.259583 396.549408,904.009399 396.597534,900.395447 
	C396.755188,888.565369 396.741699,876.731018 396.608154,864.900330 
	C396.568481,861.387512 397.519287,859.699524 401.390991,859.827637 
	C408.882812,860.075562 416.387634,860.035950 423.885284,859.952454 
	C427.410034,859.913269 428.418762,861.513428 428.375793,864.843689 
	C428.334137,868.070618 427.150116,869.351990 423.945374,869.251648 
	C419.783997,869.121277 415.612854,869.330933 411.448944,869.245605 
	C407.725769,869.169434 405.694458,870.519104 406.362793,874.945312 
z"/>
</svg>